<svg id="icon" xmlns="http://www.w3.org/2000/svg" viewBox="0 0 512 512"><defs><style>.cls-1{fill:#e6e6e6;}.cls-2{fill:#fff;}.cls-3{fill:#ffca5f;}.cls-4{fill:#f7899e;}.cls-5{fill:#376782;}</style></defs><title>analytics report</title><polygon class="cls-1" points="50.48 150.9 181.55 441.23 352.66 441.23 461.52 392.08 301.48 37.58 50.48 150.9"/><rect class="cls-2" x="132.32" y="85.46" width="275.39" height="388.95"/><path class="cls-3" d="M197.22,215.81a70.69,70.69,0,1,0,141.38,0H267.91V145.12A70.69,70.69,0,0,0,197.22,215.81Z"/><path class="cls-4" d="M291.9,121v70.69h70.68A70.68,70.68,0,0,0,291.9,121Z"/><path class="cls-5" d="M244.47,68.79a5.41,5.41,0,0,0,2.24-.48l52-23.49,8.1,17.93a5.47,5.47,0,1,0,10-4.5L306.46,35.33a5.48,5.48,0,0,0-7.24-2.73l-57,25.74a5.47,5.47,0,0,0,2.26,10.45Z"/><path class="cls-5" d="M425.1,408.53a5.46,5.46,0,0,0,7.24,2.73l31.43-14.19a5.48,5.48,0,0,0,2.74-7.24l-32.92-72.91a5.47,5.47,0,1,0-10,4.5l30.67,67.93-26.45,11.94A5.47,5.47,0,0,0,425.1,408.53Z"/><path class="cls-5" d="M57.71,153.64l48.87-22.07a5.47,5.47,0,1,0-4.5-10L48.23,145.92A5.41,5.41,0,0,0,45.36,149a5.5,5.5,0,0,0,.13,4.18l58.26,129a5.47,5.47,0,0,0,10-4.5Z"/><path class="cls-5" d="M413.18,474.41v-389A5.46,5.46,0,0,0,407.71,80H132.32a5.47,5.47,0,0,0-5.47,5.47v389a5.46,5.46,0,0,0,5.47,5.47H407.71A5.46,5.46,0,0,0,413.18,474.41ZM402.25,469H137.79v-378H402.25Z"/><path class="cls-5" d="M267.91,292a76.25,76.25,0,0,0,76.16-76.16,5.47,5.47,0,0,0-5.47-5.47H273.38V145.12a5.47,5.47,0,0,0-5.47-5.47,76.16,76.16,0,0,0,0,152.32Zm-5.47-141.15v65a5.47,5.47,0,0,0,5.47,5.47h65a65.22,65.22,0,1,1-70.46-70.46Z"/><path class="cls-5" d="M291.9,197.11h70.68a5.47,5.47,0,0,0,5.47-5.47,76.24,76.24,0,0,0-76.15-76.16,5.47,5.47,0,0,0-5.47,5.47v70.69A5.47,5.47,0,0,0,291.9,197.11Zm5.47-70.46a65.34,65.34,0,0,1,59.52,59.52H297.37Z"/><path class="cls-5" d="M197.22,350H338.6a5.47,5.47,0,1,0,0-10.93H197.22a5.47,5.47,0,1,0,0,10.93Z"/><path class="cls-5" d="M338.6,374H319.32a5.47,5.47,0,0,0,0,10.94H338.6a5.47,5.47,0,0,0,0-10.94Z"/><path class="cls-5" d="M197.22,384.93h83.15a5.47,5.47,0,1,0,0-10.94H197.22a5.47,5.47,0,1,0,0,10.94Z"/><path class="cls-5" d="M338.6,409H267.91a5.47,5.47,0,0,0,0,10.94H338.6a5.47,5.47,0,0,0,0-10.94Z"/><path class="cls-5" d="M197.22,419.9h31.22a5.47,5.47,0,0,0,0-10.94H197.22a5.47,5.47,0,0,0,0,10.94Z"/></svg>